# xmcd
#
# Track frame offsets:
#	150
#	12127
#	24052
#	46306
#	61439
#	74515
#	95038
#	112342
#	125969
#	139276
#	161182
#	182933
#	201013
#	215888
#	246766
#	260905
#	279449
#	296077
#	308632
#	327186
#	345396
#
# Disc length: 4756 seconds
#
# Revision: 0
# Processed by: cddbd v1.5.2PL0 Copyright (c) Steve Scherf et al.
# Submitted via: SynApp - FreeCDDB Version: 2.2
#
DISCID=56129215
DTITLE=Jose Feliciano - The Best Of Jose Feliciano
DYEAR=2006
DGENRE=Pop
TTITLE0=Jose Feliciano - Pegao (Instrumental)
TTITLE1=Jose Feliciano - Rain
TTITLE2=Jose Feliciano - The Last Thing On My Mind
TTITLE3=Jose Feliciano - In My Life
TTITLE4=Jose Feliciano - Don´t Let The Sun Catch You Crying
TTITLE5=Jose Feliciano - Hi Heel Sneakers
TTITLE6=Jose Feliciano - Samba Pa Ti
TTITLE7=Jose Feliciano - Chico And The Man
TTITLE8=Jose Feliciano - La Bamba
TTITLE9=Jose Feliciano - Affirmation (Instrumental)
TTITLE10=Jose Feliciano - Stay With Me
TTITLE11=Jose Feliciano - California Dreamin
TTITLE12=Jose Feliciano - Time After Time
TTITLE13=Jose Feliciano - Bamboleo
TTITLE14=Jose Feliciano - Light My Fire
TTITLE15=Jose Feliciano - You Send Me
TTITLE16=Jose Feliciano - Angela Mia
TTITLE17=Jose Feliciano - Walk Right In
TTITLE18=Jose Feliciano - Che sera
TTITLE19=Jose Feliciano - And I Love Her
TTITLE20=Jose Feliciano - Mystery Train
EXTD=
EXTT0=
EXTT1=
EXTT2=
EXTT3=
EXTT4=
EXTT5=
EXTT6=
EXTT7=
EXTT8=
EXTT9=
EXTT10=
EXTT11=
EXTT12=
EXTT13=
EXTT14=
EXTT15=
EXTT16=
EXTT17=
EXTT18=
EXTT19=
EXTT20=
PLAYORDER=
